<svg width="50" height="50" viewBox="0 0 50 50" fill="none" xmlns="http://www.w3.org/2000/svg">
<path d="M49.1674 38.0449L25.7989 49.8125C25.3026 50.0625 24.6974 50.0625 24.2011 49.8125L0.832644 38.0449C-0.278636 37.4863 -0.276459 36.0478 0.832644 35.4902L6.64483 32.5635L22.6033 40.5996C24.0916 41.3499 25.9106 41.3487 27.3967 40.5996L43.3552 32.5635L49.1674 35.4902C50.2786 36.0488 50.2765 37.4873 49.1674 38.0449Z" fill="#1A1A1A"/>
<path d="M49.1674 23.7227L43.3552 20.7959L27.3967 28.832C25.911 29.581 24.0912 29.582 22.6033 28.832L6.64483 20.7959L0.832644 23.7227C-0.276459 24.2803 -0.278636 25.7187 0.832644 26.2773L24.2011 38.0449C24.6974 38.2949 25.3026 38.2949 25.7989 38.0449L49.1674 26.2773C50.2765 25.7197 50.2786 24.2812 49.1674 23.7227ZM10.5675 28.2051C9.6652 28.2051 8.93487 27.5488 8.93487 26.7402C8.93487 25.9307 9.6652 25.2754 10.5675 25.2754C11.4687 25.2754 12.2001 25.9307 12.2001 26.7402C12.2001 27.5488 11.4687 28.2051 10.5675 28.2051ZM17.5193 31.833C16.617 31.833 15.8866 31.1767 15.8866 30.3682C15.8866 29.5586 16.617 28.9033 17.5193 28.9033C18.4205 28.9033 19.1519 29.5586 19.1519 30.3682C19.1519 31.1767 18.4205 31.833 17.5193 31.833ZM25 35.2314C24.0988 35.2314 23.3674 34.5762 23.3674 33.7666C23.3674 32.958 24.0988 32.3017 25 32.3017C25.9012 32.3017 26.6326 32.958 26.6326 33.7666C26.6326 34.5762 25.9012 35.2314 25 35.2314ZM32.4807 31.833C31.5795 31.833 30.8481 31.1767 30.8481 30.3682C30.8481 29.5586 31.5795 28.9033 32.4807 28.9033C33.383 28.9033 34.1134 29.5586 34.1134 30.3682C34.1134 31.1767 33.383 31.833 32.4807 31.833ZM39.4325 28.2051C38.5313 28.2051 37.7999 27.5488 37.7999 26.7402C37.7999 25.9307 38.5313 25.2754 39.4325 25.2754C40.3348 25.2754 41.0651 25.9307 41.0651 26.7402C41.0651 27.5488 40.3348 28.2051 39.4325 28.2051Z" fill="#1A1A1A"/>
<path d="M49.1674 14.5098L25.7989 26.2773C25.3025 26.5273 24.6974 26.5273 24.2011 26.2773L0.832644 14.5098C-0.278636 13.9512 -0.276459 12.5127 0.832644 11.9551L24.2011 0.1875C24.6975 -0.0625 25.3026 -0.0625 25.7989 0.1875L49.1674 11.9551C50.2786 12.5137 50.2765 13.9521 49.1674 14.5098Z" fill="#1A1A1A"/>
</svg>
