<svg width="50" height="50" viewBox="0 0 50 50" fill="none" xmlns="http://www.w3.org/2000/svg">
<path d="M7.21917 0.00012207H1.44383C0.646417 0.00012207 0 0.662472 0 1.47954V7.39723C0 8.2143 0.646417 8.87665 1.44383 8.87665H7.21917C8.01659 8.87665 8.66301 8.2143 8.66301 7.39723V1.47954C8.66301 0.662472 8.01659 0.00012207 7.21917 0.00012207Z" fill="#1A1A1A"/>
<path d="M1.08276 0.00012207H46.5636V8.61838H1.08276V0.00012207Z" fill="#1A1A1A"/>
<path d="M48.5561 0.00012207H42.7807C41.9833 0.00012207 41.3369 0.6432 41.3369 1.4365V7.182C41.3369 7.9753 41.9833 8.61838 42.7807 8.61838H48.5561C49.3535 8.61838 49.9999 7.9753 49.9999 7.182V1.4365C49.9999 0.6432 49.3535 0.00012207 48.5561 0.00012207Z" fill="#1A1A1A"/>
<path d="M0 2.15466H8.66301V48.4778H0V2.15466Z" fill="#1A1A1A"/>
<path d="M7.21917 41.1235H1.44383C0.646417 41.1235 0 41.7859 0 42.603V48.5206C0 49.3377 0.646417 50.0001 1.44383 50.0001H7.21917C8.01659 50.0001 8.66301 49.3377 8.66301 48.5206V42.603C8.66301 41.7859 8.01659 41.1235 7.21917 41.1235Z" fill="#1A1A1A"/>
<path d="M39.745 13.8398H19.0783C16.2248 13.8398 13.9116 16.1411 13.9116 18.9798V39.5397C13.9116 42.3785 16.2248 44.6797 19.0783 44.6797H39.745C42.5985 44.6797 44.9116 42.3785 44.9116 39.5397V18.9798C44.9116 16.1411 42.5985 13.8398 39.745 13.8398Z" fill="#1A1A1A"/>
<path d="M21.0592 27.0505H23.6192V27.7865C24.2378 27.1785 24.9685 26.8745 25.8112 26.8745C26.1845 26.8745 26.5045 26.9705 26.7712 27.1625C27.0485 27.3438 27.2565 27.6158 27.3952 27.9785C28.0458 27.2425 28.8298 26.8745 29.7472 26.8745C30.2912 26.8745 30.7232 27.0771 31.0432 27.4825C31.3738 27.8771 31.5392 28.4211 31.5392 29.1145V36.2985H28.9792V29.3865C28.9792 29.1305 28.9312 28.9491 28.8352 28.8425C28.7498 28.7251 28.6165 28.6665 28.4352 28.6665C28.3178 28.6665 28.1792 28.6985 28.0192 28.7625C27.8592 28.8158 27.7098 28.8958 27.5712 29.0025V29.1145V36.2985H25.0432V29.3865C25.0432 28.9065 24.8565 28.6665 24.4832 28.6665C24.2378 28.6665 23.9498 28.7785 23.6192 29.0025V36.2985H21.0592V27.0505ZM33.586 28.0905L35.426 26.2345C35.9167 25.7545 36.2527 25.3705 36.434 25.0825C36.626 24.7945 36.722 24.5065 36.722 24.2185C36.722 23.7385 36.5247 23.4985 36.13 23.4985C35.8847 23.4985 35.7087 23.6105 35.602 23.8345C35.4954 24.0478 35.442 24.3731 35.442 24.8105H33.554V24.5545C33.554 23.7651 33.7674 23.1305 34.194 22.6505C34.6314 22.1705 35.2927 21.9305 36.178 21.9305C36.9354 21.9305 37.5327 22.1385 37.97 22.5545C38.4074 22.9598 38.626 23.5198 38.626 24.2345C38.626 24.7465 38.514 25.1998 38.29 25.5945C38.066 25.9891 37.7087 26.4265 37.218 26.9065L36.29 27.8185H38.69V29.3705H33.586V28.0905Z" fill="white"/>
</svg>
