<svg width="50" height="50" viewBox="0 0 50 50" fill="none" xmlns="http://www.w3.org/2000/svg">
<path d="M12.1101 10.8241C11.8659 10.8241 11.668 11.0556 11.668 11.3412V14.6286H20.9077V11.3411C20.9077 11.0555 20.7099 10.8241 20.4657 10.8241H12.1101Z" fill="#1A1A1A"/>
<path d="M29.5344 10.8241C29.2902 10.8241 29.0923 11.0556 29.0923 11.3412V14.6286H38.332V11.3412C38.332 11.0556 38.1342 10.8242 37.89 10.8242H29.5344V10.8241Z" fill="#1A1A1A"/>
<path d="M8.70937 14.5945V11.341C8.70937 9.14743 10.2351 7.36284 12.1103 7.36284H20.466C22.3413 7.36284 23.867 9.14743 23.867 11.341V14.5945H26.1337V11.341C26.1337 9.14743 27.6594 7.36284 29.5347 7.36284H37.8903C39.7656 7.36284 41.2913 9.14743 41.2913 11.341V14.5945H43.6463C44.1057 14.5945 44.5543 14.649 44.9881 14.7523V4.13634C44.9881 1.85199 43.4049 0.00012207 41.452 0.00012207H8.54873C6.5958 0.00012207 5.0127 1.85199 5.0127 4.13634V14.7523C5.44639 14.6491 5.89512 14.5945 6.35449 14.5945H8.70937Z" fill="#1A1A1A"/>
<path d="M48.1667 25.3212H1.8333C0.820801 25.3212 0 26.2813 0 27.4656V41.5208C0 42.7051 0.820801 43.6652 1.8333 43.6652H48.1667C49.1792 43.6652 50 42.7051 50 41.5208V27.4656C50 26.2813 49.1792 25.3212 48.1667 25.3212Z" fill="#1A1A1A"/>
<path d="M43.6457 18.0557H6.35381C4.44912 18.0557 2.87607 19.712 2.62744 21.8602H47.3721C47.1234 19.712 45.5504 18.0557 43.6457 18.0557Z" fill="#1A1A1A"/>
<path d="M1.83203 47.1262V48.2695C1.83203 49.2253 2.49443 50.0001 3.31152 50.0001C4.12861 50.0001 4.79101 49.2253 4.79101 48.2695V47.1263H1.83311C1.83271 47.1262 1.83242 47.1262 1.83203 47.1262Z" fill="#1A1A1A"/>
<path d="M45.209 47.1262V48.2694C45.209 49.2252 45.8714 50 46.6885 50C47.5056 50 48.168 49.2252 48.168 48.2694V47.1261C48.1676 47.1261 48.1673 47.1261 48.1669 47.1261H45.209V47.1262Z" fill="#1A1A1A"/>
</svg>
