<svg width="50" height="50" viewBox="0 0 50 50" fill="none" xmlns="http://www.w3.org/2000/svg">
<path d="M48.8994 13.9441L26.1063 0.281118C25.8039 0.0997907 25.411 0 25 0C24.589 0 24.1961 0.0997907 23.8937 0.281118L1.10058 13.9441C0.473236 14.3202 0 15.1647 0 15.9085V48.4788C0 49.3175 0.667211 50 1.48754 50H4.04849C4.86882 50 5.53603 49.3175 5.53603 48.4788V20.9171C5.53603 20.6376 5.75837 20.41 6.03188 20.41H43.9677C44.2412 20.41 44.4636 20.6376 44.4636 20.9171V48.4788C44.4636 49.3175 45.1308 50 45.9511 50H48.5123C49.3326 50 49.9998 49.3175 49.9998 48.4788V15.9085C50 15.1647 49.5268 14.3202 48.8994 13.9441Z" fill="#1A1A1A"/>
<rect x="8" y="22.9547" width="34" height="6.13576" rx="1" fill="#1A1A1A"/>
<rect x="8" y="33.181" width="34" height="6.13576" rx="1" fill="#1A1A1A"/>
<rect x="8" y="43.4073" width="34" height="6.13576" rx="1" fill="#1A1A1A"/>
</svg>
