<svg width="45" height="50" viewBox="0 0 45 50" fill="none" xmlns="http://www.w3.org/2000/svg">
<path d="M12.5 17.1443L22.5 13.2519L32.5 17.1443V19.5607C32.5 26.1284 28.8895 32.5702 22.5 36.3967C16.1104 32.5702 12.5 26.1284 12.5 19.5607V17.1443ZM18.8211 38.1803C18.8224 38.1798 18.8237 38.1793 18.825 38.1788C18.8237 38.1793 18.8224 38.1798 18.8211 38.1803Z" stroke="#1A1A1A" stroke-width="25"/>
<path d="M36.2998 25.5001C36.2999 24.9298 35.8377 24.4676 35.2675 24.4676C34.6973 24.4676 34.2351 24.9298 34.2351 25.5C34.2351 31.4191 29.419 36.2351 23.5 36.2351C17.5809 36.2351 12.7649 31.4191 12.7649 25.5C12.7649 19.5809 17.5809 14.7649 23.5 14.7649C25.1692 14.7649 26.7957 15.148 28.27 15.8805L27.6436 16.5069C27.3483 16.8022 27.26 17.2462 27.4197 17.632L27.4198 17.6321C27.5796 18.0178 27.956 18.2694 28.3736 18.2694H31.8781C32.4483 18.2694 32.9105 17.8072 32.9105 17.237V13.7325C32.9105 13.3149 32.659 12.9385 32.2732 12.7786C31.8873 12.6188 31.4432 12.7071 31.148 13.0025L29.7964 14.3541C27.8811 13.2698 25.7213 12.7001 23.4999 12.7001C20.0815 12.7001 16.8662 14.0319 14.449 16.4491L14.449 16.4491C12.0318 18.8663 10.7 22.0816 10.7 25.5C10.7 28.9184 12.0318 32.1337 14.449 34.5509C16.8662 36.9682 20.0815 38.3 23.4999 38.3C26.9183 38.3 30.1336 36.9682 32.5508 34.5509C34.9681 32.1337 36.2998 28.9185 36.2998 25.5001ZM36.2998 25.5001L35.9998 25.5L36.2998 25.5001Z" fill="white" stroke="white" stroke-width="0.6"/>
<path d="M28.207 24.4676H24.5324V20.793C24.5324 20.2228 24.0702 19.7605 23.5 19.7605C22.9298 19.7605 22.4676 20.2228 22.4676 20.793V25.5C22.4676 26.0701 22.9298 26.5324 23.5 26.5324H28.207C28.7771 26.5324 29.2394 26.0701 29.2394 25.5C29.2394 24.9298 28.7771 24.4676 28.207 24.4676Z" fill="white" stroke="white" stroke-width="0.6"/>
</svg>
