<svg width="50" height="50" viewBox="0 0 50 50" fill="none" xmlns="http://www.w3.org/2000/svg">
<path d="M20.6073 23.4444H20.6054L20.6015 16.6666H11.8223V23.4444V33.3333H20.6112L20.6073 23.4444Z" fill="#1A1A1A"/>
<path d="M23.5424 34.9989C23.543 35.9193 22.8867 36.6667 22.0774 36.6667H10.3575C9.54844 36.6667 8.89258 35.9205 8.89258 35.0001V26.7778H3.15771L4.05479 39.0254C4.32705 42.7426 6.72588 45.7654 9.88945 46.4975V48.3334C9.88945 49.2538 10.5453 50.0001 11.3544 50.0001C12.1635 50.0001 12.8193 49.2538 12.8193 48.3334V46.6667H37.1854V48.3334C37.1854 49.2538 37.8412 50.0001 38.6503 50.0001C39.4594 50.0001 40.1152 49.2538 40.1152 48.3334V46.4974C43.2771 45.7657 45.6774 42.7446 45.9499 39.0254L46.8473 26.7778H23.5375L23.5424 34.9989Z" fill="#1A1A1A"/>
<path d="M46.582 16.6667H35.2625V13.3333H36.7177C37.5268 13.3333 38.1826 12.5871 38.1826 11.6667C38.1826 10.7462 37.5268 10 36.7177 10H35.2625V6.67222C35.2625 2.99322 32.6315 0 29.3977 0C26.1638 0 23.5328 2.99311 23.5328 6.67222V8.33333C23.5328 9.25378 24.1887 10 24.9978 10C25.8068 10 26.4627 9.25378 26.4627 8.33333V6.67222C26.4627 4.83122 27.7793 3.33333 29.3976 3.33333C31.0158 3.33333 32.3324 4.83111 32.3324 6.67222V16.6667H23.5317L23.5357 23.4444H50.0003V20.5556C50.0003 18.4112 48.4669 16.6667 46.582 16.6667Z" fill="#1A1A1A"/>
<path d="M8.89248 16.6666H3.41826C1.5334 16.6666 0 18.4112 0 20.5555V23.4444H8.89248V16.6666Z" fill="#1A1A1A"/>
</svg>
