<svg width="87" height="276" viewBox="0 0 87 276" fill="none" xmlns="http://www.w3.org/2000/svg">
<path opacity="0.05" d="M85 275.76L0.759993 275.76L0.759992 253.816C0.759992 250.211 1.03733 246.813 1.59199 243.624C2.14666 240.365 3.22133 237.488 4.816 234.992C6.34133 232.496 8.56 230.555 11.472 229.168C14.3147 227.712 18.0933 226.984 22.808 226.984C26.2053 226.984 29.0827 227.504 31.44 228.544C33.728 229.515 35.5653 230.936 36.952 232.808C38.3387 234.611 39.2747 236.795 39.76 239.36C40.176 236.101 41.2507 233.363 42.984 231.144C44.648 228.925 46.9013 227.261 49.744 226.152C52.5867 224.973 56.0187 224.384 60.04 224.384C64.408 224.384 68.1867 224.973 71.376 226.152C74.496 227.261 77.0613 228.891 79.072 231.04C81.0827 233.189 82.5733 235.859 83.544 239.048C84.5147 242.168 85 245.773 85 249.864L85 275.76ZM72 257.144L72 253.192C72 249.101 70.96 246.293 68.88 244.768C66.8 243.173 63.7493 242.376 59.728 242.376C56.5387 242.376 54.008 242.723 52.136 243.416C50.264 244.109 48.912 245.253 48.08 246.848C47.1787 248.443 46.728 250.592 46.728 253.296L46.728 257.144L72 257.144ZM34.456 257.144L34.456 253.504C34.456 250.661 34.04 248.512 33.208 247.056C32.3067 245.6 31.024 244.629 29.36 244.144C27.696 243.589 25.6853 243.312 23.328 243.312C21.1093 243.312 19.272 243.728 17.816 244.56C16.2907 245.323 15.1467 246.501 14.384 248.096C13.6213 249.621 13.24 251.563 13.24 253.92L13.24 257.144L34.456 257.144ZM86.248 190.283C86.248 196.731 85.208 201.793 83.128 205.467C80.9787 209.073 77.8933 211.603 73.872 213.059C69.7813 214.515 64.7893 215.243 58.896 215.243L0.759991 215.243L0.75999 196.835L61.704 196.835C63.4373 196.835 65.1707 196.697 66.904 196.419C68.6373 196.142 70.0587 195.553 71.168 194.651C72.2773 193.681 72.832 192.225 72.832 190.283C72.832 188.273 72.2773 186.817 71.168 185.915C70.0587 185.014 68.6373 184.459 66.904 184.251C65.1707 183.974 63.4373 183.835 61.704 183.835L0.759989 183.835L0.759988 165.323L58.896 165.323C64.7893 165.323 69.7813 166.086 73.872 167.611C77.8933 169.067 80.9787 171.598 83.128 175.203C85.208 178.809 86.248 183.835 86.248 190.283ZM85 153.375L0.759988 153.375L0.759987 134.759L85 134.759L85 153.375ZM85 122.197L0.759987 122.197L0.759986 103.581L72.416 103.581L72.416 84.2375L85 84.2375L85 122.197ZM85 76.0881L0.759985 76.0881L0.759984 54.7681C0.759983 47.4188 1.69598 41.6988 3.56798 37.6081C5.37065 33.5175 8.24799 30.6401 12.2 28.9761C16.0827 27.3121 21.144 26.4801 27.384 26.4801L57.96 26.4801C64.2693 26.4801 69.4347 27.3121 73.456 28.9761C77.408 30.6401 80.32 33.5175 82.192 37.6081C84.064 41.6295 85 47.2801 85 54.5601L85 76.0881ZM72.104 57.4721L72.104 54.5601C72.104 51.7175 71.688 49.6721 70.856 48.4241C70.024 47.1761 68.776 46.4135 67.112 46.1361C65.448 45.7895 63.368 45.6161 60.872 45.6161L24.16 45.6161C21.664 45.6161 19.6533 45.8241 18.128 46.2401C16.6027 46.5868 15.4933 47.3841 14.8 48.6321C14.1067 49.8801 13.76 51.8908 13.76 54.6641L13.76 57.4721L72.104 57.4721ZM85 16.6066L68.984 16.6066L68.984 0.590621L85 0.59062L85 16.6066Z" fill="black"/>
</svg>
