<svg width="29" height="6" viewBox="0 0 29 6" fill="none" xmlns="http://www.w3.org/2000/svg">
<path fill-rule="evenodd" clip-rule="evenodd" d="M26.281 0.119322L28.8804 2.71193C29.0399 2.87103 29.0399 3.12897 28.8804 3.28807L26.281 5.88068C26.1215 6.03977 25.8629 6.03977 25.7034 5.88068C25.5439 5.72158 25.5439 5.46364 25.7034 5.30454L27.6055 3.40739H3.21672C3.03663 4.11242 2.39895 4.62956 1.6338 4.62956C0.727471 4.62956 0 3.90398 0 3C0 2.09602 0.727471 1.37044 1.6338 1.37044C2.39895 1.37044 3.03663 1.88758 3.21672 2.59261H27.6055L25.7034 0.695457C25.5439 0.536362 25.5439 0.278417 25.7034 0.119322C25.8629 -0.0397739 26.1215 -0.0397739 26.281 0.119322ZM1.6338 2.18522C1.17863 2.18522 0.816901 2.54601 0.816901 3C0.816901 3.45399 1.17863 3.81478 1.6338 3.81478C2.08897 3.81478 2.4507 3.45399 2.4507 3C2.4507 2.54601 2.08897 2.18522 1.6338 2.18522Z" fill="#808080"/>
</svg>
