<svg width="6" height="29" viewBox="0 0 6 29" fill="none" xmlns="http://www.w3.org/2000/svg">
<path fill-rule="evenodd" clip-rule="evenodd" d="M5.88068 26.281L3.28807 28.8804C3.12897 29.0399 2.87103 29.0399 2.71193 28.8804L0.11932 26.281C-0.0397752 26.1215 -0.0397752 25.8629 0.11932 25.7034C0.278415 25.5439 0.53636 25.5439 0.695456 25.7034L2.59261 27.6055L2.59261 3.21672C1.88758 3.03663 1.37044 2.39895 1.37044 1.6338C1.37044 0.72747 2.09602 -1.70648e-07 3 -1.31134e-07C3.90398 -9.16201e-08 4.62956 0.72747 4.62956 1.6338C4.62956 2.39895 4.11242 3.03663 3.40739 3.21672L3.40739 27.6055L5.30454 25.7034C5.46364 25.5439 5.72158 25.5439 5.88068 25.7034C6.03977 25.8629 6.03977 26.1215 5.88068 26.281ZM3.81478 1.6338C3.81478 1.17863 3.45399 0.816901 3 0.816901C2.54601 0.816901 2.18522 1.17863 2.18522 1.6338C2.18522 2.08897 2.54601 2.4507 3 2.4507C3.45399 2.4507 3.81478 2.08897 3.81478 1.6338Z" fill="#808080"/>
</svg>
