<svg width="21" height="21" viewBox="0 0 21 21" fill="none" xmlns="http://www.w3.org/2000/svg">
<path d="M17.9238 0H3.07617C1.38011 0 0 1.38011 0 3.07617V17.9238C0 19.6199 1.38011 21 3.07617 21H17.9238C19.6199 21 21 19.6199 21 17.9238V3.07617C21 1.38011 19.6199 0 17.9238 0ZM10.541 15.9961C7.48775 15.9961 5.00391 13.5122 5.00391 10.459C5.00391 7.40572 7.48775 4.92188 10.541 4.92188C13.5943 4.92188 16.0781 7.40572 16.0781 10.459C16.0781 13.5122 13.5943 15.9961 10.541 15.9961ZM16.6934 6.15234C15.6757 6.15234 14.8477 5.32434 14.8477 4.30664C14.8477 3.28894 15.6757 2.46094 16.6934 2.46094C17.7111 2.46094 18.5391 3.28894 18.5391 4.30664C18.5391 5.32434 17.7111 6.15234 16.6934 6.15234Z" fill="black"/>
<path d="M16.6934 3.69141C16.3539 3.69141 16.0782 3.96709 16.0782 4.30653C16.0782 4.64597 16.3539 4.92166 16.6934 4.92166C17.0329 4.92166 17.3087 4.64597 17.3087 4.30653C17.3087 3.96709 17.0329 3.69141 16.6934 3.69141Z" fill="black"/>
<path d="M10.5411 6.15222C8.16666 6.15222 6.23444 8.08438 6.23444 10.4587C6.23444 12.8331 8.16666 14.7652 10.5411 14.7652C12.9155 14.7652 14.8477 12.8331 14.8477 10.4587C14.8477 8.08438 12.9155 6.15222 10.5411 6.15222Z" fill="black"/>
</svg>
