<svg width="1437" height="35" viewBox="0 0 1437 35" fill="none" xmlns="http://www.w3.org/2000/svg">
<path d="M1436 2H1437V1H1436V2ZM1436 27.5V28.5H1437V27.5H1436ZM915.293 26.7929C914.902 27.1834 914.902 27.8166 915.293 28.2071L921.657 34.5711C922.047 34.9616 922.681 34.9616 923.071 34.5711C923.462 34.1805 923.462 33.5474 923.071 33.1569L917.414 27.5L923.071 21.8431C923.462 21.4526 923.462 20.8195 923.071 20.4289C922.681 20.0384 922.047 20.0384 921.657 20.4289L915.293 26.7929ZM3 3H1436V1H3V3ZM1435 2V27.5H1437V2H1435ZM1436 26.5H916V28.5H1436V26.5Z" fill="#808080"/>
<path d="M4 2C4 3.10457 3.10457 4 2 4C0.895431 4 0 3.10457 0 2C0 0.895431 0.895431 0 2 0C3.10457 0 4 0.895431 4 2ZM1.22483 2C1.22483 2.42812 1.57188 2.77517 2 2.77517C2.42812 2.77517 2.77517 2.42812 2.77517 2C2.77517 1.57188 2.42812 1.22483 2 1.22483C1.57188 1.22483 1.22483 1.57188 1.22483 2Z" fill="#808080"/>
</svg>
