<svg width="9" height="163" viewBox="0 0 9 163" fill="none" xmlns="http://www.w3.org/2000/svg">
<path d="M4.5 1C4 1 2 1.5 2 3.5C2 5.5 4 6 4.5 6C5 6 7 5.5 7 3.5C7 1.5 5 1 4.5 1Z" fill="white"/>
<path fill-rule="evenodd" clip-rule="evenodd" d="M3.33982 1.91603C2.88658 2.21819 2.49997 2.70012 2.49997 3.5C2.49997 4.29988 2.88658 4.78181 3.33982 5.08397C3.82033 5.40431 4.34885 5.5 4.49997 5.5C4.6511 5.5 5.17962 5.40431 5.66012 5.08397C6.11337 4.78181 6.49997 4.29988 6.49997 3.5C6.49997 2.70012 6.11337 2.21819 5.66012 1.91602C5.17962 1.59569 4.6511 1.5 4.49997 1.5C4.34885 1.5 3.82033 1.59569 3.33982 1.91603ZM2.78512 1.08397C3.42962 0.654309 4.1511 0.5 4.49997 0.5C4.84885 0.5 5.57033 0.654309 6.21482 1.08397C6.88658 1.53181 7.49997 2.29988 7.49997 3.5C7.49997 4.70012 6.88658 5.46819 6.21482 5.91603C5.80208 6.19118 5.35778 6.35342 4.99997 6.43451V161.293L7.3284 158.964C7.52366 158.769 7.84025 158.769 8.03551 158.964C8.23077 159.16 8.23077 159.476 8.03551 159.672L4.85353 162.854C4.65827 163.049 4.34168 163.049 4.14642 162.854L0.96444 159.672C0.769178 159.476 0.769178 159.16 0.96444 158.964C1.1597 158.769 1.47628 158.769 1.67155 158.964L3.99997 161.293V6.43451C3.64217 6.35342 3.19786 6.19118 2.78512 5.91602C2.11337 5.46819 1.49997 4.70012 1.49997 3.5C1.49997 2.29988 2.11337 1.53181 2.78512 1.08397Z" fill="#808080"/>
</svg>
