<svg width="111" height="163" viewBox="0 0 111 163" fill="none" xmlns="http://www.w3.org/2000/svg">
<path d="M33.4017 1.00049C32.6755 1.00049 32.0946 1.68448 32.0946 2.53946C32.0946 3.39445 32.6755 4.07844 33.4017 4.07844C34.1278 4.07844 34.7087 3.39445 34.7087 2.53946C34.7087 1.68448 34.1278 1.00049 33.4017 1.00049Z" fill="white"/>
<path fill-rule="evenodd" clip-rule="evenodd" d="M33.4016 1.50049C33.0251 1.50049 32.5946 1.88093 32.5946 2.53946C32.5946 3.19799 33.0251 3.57844 33.4016 3.57844C33.7782 3.57844 34.2087 3.19799 34.2087 2.53946C34.2087 1.88093 33.7782 1.50049 33.4016 1.50049ZM34.9575 3.57844C35.1195 3.26614 35.2087 2.9067 35.2087 2.53946C35.2087 1.48802 34.4774 0.500488 33.4016 0.500488C32.3259 0.500488 31.5946 1.48802 31.5946 2.53946C31.5946 3.5909 32.3259 4.57844 33.4016 4.57844H109.5V158.001C109.5 158.277 109.276 158.501 109 158.501H1.70711L4.03553 156.172C4.2308 155.977 4.2308 155.66 4.03553 155.465C3.84027 155.27 3.52369 155.27 3.32843 155.465L0.146447 158.647C-0.0488155 158.842 -0.0488155 159.159 0.146447 159.354L3.32843 162.536C3.52369 162.731 3.84027 162.731 4.03553 162.536C4.2308 162.341 4.2308 162.024 4.03553 161.829L1.70711 159.501H109C109.828 159.501 110.5 158.829 110.5 158.001V3.57844H34.9575Z" fill="#808080"/>
</svg>
