<svg width="61" height="182" viewBox="0 0 61 182" fill="none" xmlns="http://www.w3.org/2000/svg">
<path d="M1.54242 0.521027C0.987137 0.521027 0.542908 1.23377 0.542908 2.1247C0.542908 3.01563 0.987137 3.72837 1.54242 3.72837C2.09771 3.72837 2.54194 3.01563 2.54194 2.1247C2.54194 1.23377 2.09771 0.521027 1.54242 0.521027Z" fill="white"/>
<path fill-rule="evenodd" clip-rule="evenodd" d="M47.5956 1.1222C47.2977 1.1222 46.9572 1.54913 46.9572 2.28813C46.9572 3.02713 47.2977 3.45406 47.5956 3.45406C47.8935 3.45406 48.2341 3.02713 48.2341 2.28813C48.2341 1.54913 47.8935 1.1222 47.5956 1.1222ZM48.8265 3.45406C48.9546 3.10361 49.0251 2.70024 49.0251 2.28813C49.0251 1.10821 48.4466 0 47.5956 0C46.7446 0 46.1661 1.10821 46.1661 2.28813C46.1661 3.46805 46.7446 4.57626 47.5956 4.57626H60.2089V176.746C60.2089 177.056 60.0318 177.307 59.8134 177.307H47.3504L49.1924 174.694C49.3469 174.475 49.3469 174.12 49.1924 173.901C49.0379 173.681 48.7875 173.681 48.633 173.901L46.1159 177.471C45.9614 177.69 45.9614 178.046 46.1159 178.265L48.633 181.836C48.7875 182.055 49.0379 182.055 49.1924 181.836C49.3469 181.617 49.3469 181.261 49.1924 181.042L47.3504 178.429H59.8134C60.4687 178.429 61 177.676 61 176.746V3.45406H48.8265Z" fill="#808080"/>
</svg>
