<svg width="39" height="61" viewBox="0 0 39 61" fill="none" xmlns="http://www.w3.org/2000/svg">
<path d="M38.5376 59.2049V0.383397V0H39V59.2049C39 59.5226 38.6895 59.78 38.3064 59.78H0.789331L1.86595 60.6728C1.95624 60.7476 1.95624 60.869 1.86595 60.9439C1.77567 61.0187 1.62928 61.0187 1.539 60.9439L0.067714 59.7239C-0.0225713 59.649 -0.0225713 59.5277 0.067714 59.4528L1.539 58.2328C1.62928 58.158 1.77567 58.158 1.86595 58.2328C1.95624 58.3077 1.95624 58.4291 1.86595 58.5039L0.789331 59.3966H38.3064C38.4341 59.3966 38.5376 59.3108 38.5376 59.2049Z" fill="#808080"/>
</svg>
