<svg width="85" height="163" viewBox="0 0 85 163" fill="none" xmlns="http://www.w3.org/2000/svg">
<path d="M25.5424 0.5C24.9871 0.5 24.5429 1.18399 24.5429 2.03897C24.5429 2.89396 24.9871 3.57795 25.5424 3.57795C26.0977 3.57795 26.5419 2.89396 26.5419 2.03897C26.5419 1.18399 26.0977 0.5 25.5424 0.5Z" fill="white"/>
<path fill-rule="evenodd" clip-rule="evenodd" d="M44.5424 1C44.2545 1 43.9253 1.38044 43.9253 2.03897C43.9253 2.6975 44.2545 3.07795 44.5424 3.07795C44.8304 3.07795 45.1596 2.69751 45.1596 2.03897C45.1596 1.38044 44.8304 1 44.5424 1ZM45.7322 3.07795C45.8561 2.76566 45.9243 2.40621 45.9243 2.03897C45.9243 0.987536 45.3651 0 44.5424 0C43.7198 0 43.1606 0.987535 43.1606 2.03897C43.1606 3.09041 43.7198 4.07795 44.5424 4.07795H83.7353V157.5C83.7353 157.776 83.5641 158 83.3529 158H1.30543L3.086 155.672C3.23531 155.476 3.23531 155.16 3.086 154.964C2.93668 154.769 2.69459 154.769 2.54527 154.964L0.111989 158.146C-0.0373295 158.342 -0.0373295 158.658 0.111989 158.854L2.54527 162.036C2.69459 162.231 2.93668 162.231 3.086 162.036C3.23531 161.84 3.23531 161.524 3.086 161.328L1.30543 159H83.3529C83.9864 159 84.5 158.328 84.5 157.5V3.07795H45.7322Z" fill="#808080"/>
</svg>
