<svg width="96" height="8" viewBox="0 0 96 8" fill="none" xmlns="http://www.w3.org/2000/svg">
<path fill-rule="evenodd" clip-rule="evenodd" d="M92.1716 0.46447L95.3536 3.64645C95.5488 3.84171 95.5488 4.1583 95.3536 4.35356L92.1716 7.53554C91.9763 7.7308 91.6597 7.7308 91.4645 7.53554C91.2692 7.34028 91.2692 7.02369 91.4645 6.82843L93.7929 4.5H3.00478C2.84157 5.03811 2.41788 5.5 1.78992 5.5C0.971455 5.5 0.5 4.71537 0.5 4C0.5 3.28464 0.971455 2.5 1.78992 2.5C2.41788 2.5 2.84157 2.96189 3.00478 3.5H93.7929L91.4645 1.17158C91.2692 0.976315 91.2692 0.659733 91.4645 0.46447C91.6597 0.269208 91.9763 0.269208 92.1716 0.46447ZM1.62275 3.6016C1.55573 3.68644 1.5 3.82482 1.5 4C1.5 4.17519 1.55573 4.31357 1.62275 4.39841C1.68861 4.48178 1.75041 4.5 1.78992 4.5C1.82942 4.5 1.89123 4.48178 1.95708 4.39841C2.0241 4.31357 2.07983 4.17519 2.07983 4C2.07983 3.82482 2.0241 3.68644 1.95708 3.6016C1.89123 3.51823 1.82942 3.5 1.78992 3.5C1.75041 3.5 1.68861 3.51823 1.62275 3.6016Z" fill="#808080"/>
</svg>
