<svg width="65" height="169" viewBox="0 0 65 169" fill="none" xmlns="http://www.w3.org/2000/svg">
<path d="M5.54242 0.521027C4.98714 0.521027 4.54291 1.23377 4.54291 2.1247C4.54291 3.01563 4.98714 3.72837 5.54242 3.72837C6.09771 3.72837 6.54194 3.01563 6.54194 2.1247C6.54194 1.23377 6.09771 0.521027 5.54242 0.521027Z" fill="white"/>
<path fill-rule="evenodd" clip-rule="evenodd" d="M44.5424 1.04204C44.2545 1.04204 43.9253 1.43848 43.9253 2.12469C43.9253 2.81091 44.2545 3.20734 44.5424 3.20734C44.8304 3.20734 45.1596 2.81091 45.1596 2.12469C45.1596 1.43848 44.8304 1.04204 44.5424 1.04204ZM45.7322 3.20734C45.8561 2.88192 45.9243 2.50737 45.9243 2.12469C45.9243 1.02905 45.3651 0 44.5424 0C43.7198 0 43.1606 1.02905 43.1606 2.12469C43.1606 3.22033 43.7198 4.24938 44.5424 4.24938H63.7353V164.121C63.7353 164.409 63.5641 164.642 63.3529 164.642H1.30543L3.086 162.216C3.23531 162.012 3.23531 161.683 3.086 161.479C2.93668 161.276 2.69458 161.276 2.54527 161.479L0.111989 164.795C-0.0373295 164.998 -0.0373295 165.328 0.111989 165.532L2.54527 168.847C2.69458 169.051 2.93668 169.051 3.086 168.847C3.23531 168.644 3.23531 168.314 3.086 168.111L1.30543 165.684H63.3529C63.9864 165.684 64.5 164.984 64.5 164.121V3.20734H45.7322Z" fill="#808080"/>
</svg>
