<svg width="14" height="23" viewBox="0 0 14 23" fill="none" xmlns="http://www.w3.org/2000/svg">
<path fill-rule="evenodd" clip-rule="evenodd" d="M0.958815 8.26514C0.362467 7.6901 0.345187 6.74051 0.920218 6.14417L5.92022 0.958814C6.20293 0.665622 6.59271 0.5 7 0.5C7.40729 0.5 7.79707 0.665622 8.07978 0.958814L13.0798 6.14416C13.6548 6.74051 13.6375 7.6901 13.0412 8.26514C12.4448 8.84017 11.4953 8.82289 10.9202 8.22654L8.5 5.7166L8.5 21C8.5 21.8284 7.82843 22.5 7 22.5C6.17157 22.5 5.5 21.8284 5.5 21L5.5 5.7166L3.07978 8.22654C2.50475 8.82289 1.55516 8.84017 0.958815 8.26514Z" fill="white"/>
</svg>
